<svg xmlns="http://www.w3.org/2000/svg" xmlns:xlink="http://www.w3.org/1999/xlink" width="192" zoomAndPan="magnify" viewBox="0 0 144 143.999998" height="192" preserveAspectRatio="xMidYMid meet" version="1.0"><defs><g/><clipPath id="6b9e999ec9"><path d="M 32.132812 15.480469 L 104.882812 15.480469 L 104.882812 88.230469 L 32.132812 88.230469 Z M 32.132812 15.480469 " clip-rule="nonzero"/></clipPath></defs><path fill="#ebeef7" d="M 100.238281 86.421875 L 86.230469 82.65625 C 80.054688 81 73.679688 80.5 67.304688 80.699219 C 66.449219 80.75 65.597656 80.75 64.742188 80.699219 C 49.078125 80.046875 36.175781 67.445312 35.21875 51.730469 C 34.015625 32.953125 49.578125 17.488281 68.40625 18.792969 C 84.121094 19.898438 96.625 33.003906 97.125 48.71875 C 97.226562 52.132812 96.773438 55.445312 95.871094 58.558594 L 102.699219 83.960938 C 103.050781 85.46875 101.746094 86.824219 100.238281 86.421875 Z M 100.238281 86.421875 " fill-opacity="1" fill-rule="nonzero"/><path fill="#c3d6e4" d="M 36.726562 39.980469 C 36.726562 39.980469 62.082031 17.1875 79.101562 29.738281 C 99.082031 44.449219 92.808594 58.207031 92.808594 58.207031 L 95.320312 64.984375 C 96.171875 67.242188 99.535156 66.289062 99.082031 63.929688 L 99.183594 46.808594 L 94.464844 32.097656 L 83.519531 21.355469 L 70.96875 17.136719 L 54.800781 18.644531 L 38.734375 30.742188 L 34.265625 39.628906 Z M 36.726562 39.980469 " fill-opacity="1" fill-rule="nonzero"/><g clip-path="url(#6b9e999ec9)"><path fill="#004463" d="M 100.390625 88.230469 C 99.988281 88.230469 99.585938 88.179688 99.234375 88.078125 L 87.886719 85.015625 C 80.609375 83.058594 73.628906 82.207031 67.050781 82.457031 C 66.148438 82.507812 65.195312 82.507812 64.289062 82.457031 C 47.371094 81.753906 33.3125 67.996094 32.257812 51.128906 C 31.65625 41.4375 35.21875 32 42.097656 25.171875 C 48.976562 18.390625 58.464844 14.878906 68.15625 15.582031 C 85.027344 16.785156 98.683594 30.992188 99.183594 47.914062 C 99.183594 48.367188 99.183594 48.867188 99.183594 49.320312 C 99.082031 57.652344 100.339844 66.640625 102.847656 75.980469 L 104.605469 82.605469 C 105.007812 84.164062 104.605469 85.769531 103.453125 86.925781 C 102.648438 87.777344 101.542969 88.230469 100.390625 88.230469 Z M 100.488281 83.257812 Z M 69.210938 77.4375 C 75.535156 77.4375 82.265625 78.390625 89.144531 80.195312 L 99.636719 83.007812 L 98.078125 77.285156 C 95.46875 67.496094 94.164062 58.054688 94.265625 49.269531 C 94.265625 48.867188 94.265625 48.464844 94.265625 48.066406 C 93.8125 33.65625 82.214844 21.605469 67.855469 20.550781 C 59.621094 19.949219 51.539062 22.960938 45.714844 28.734375 C 39.890625 34.507812 36.777344 42.59375 37.277344 50.824219 C 38.183594 65.136719 50.132812 76.832031 64.441406 77.4375 C 65.246094 77.484375 65.996094 77.484375 66.800781 77.4375 C 67.605469 77.4375 68.40625 77.4375 69.210938 77.4375 Z M 69.210938 77.4375 " fill-opacity="1" fill-rule="nonzero"/></g><path fill="#f5b445" d="M 57.914062 49.972656 C 57.914062 52.332031 56.007812 54.289062 53.597656 54.289062 C 51.238281 54.289062 49.277344 52.382812 49.277344 49.972656 C 49.277344 47.613281 51.1875 45.65625 53.597656 45.65625 C 56.007812 45.65625 57.914062 47.5625 57.914062 49.972656 Z M 57.914062 49.972656 " fill-opacity="1" fill-rule="nonzero"/><path fill="#ef4c4e" d="M 69.761719 49.972656 C 69.761719 52.332031 67.855469 54.289062 65.445312 54.289062 C 63.085938 54.289062 61.128906 52.382812 61.128906 49.972656 C 61.128906 47.613281 63.035156 45.65625 65.445312 45.65625 C 67.855469 45.65625 69.761719 47.5625 69.761719 49.972656 Z M 69.761719 49.972656 " fill-opacity="1" fill-rule="nonzero"/><path fill="#4c9ad4" d="M 81.660156 49.972656 C 81.660156 52.332031 79.753906 54.289062 77.34375 54.289062 C 74.984375 54.289062 73.027344 52.382812 73.027344 49.972656 C 73.027344 47.613281 74.933594 45.65625 77.34375 45.65625 C 79.703125 45.65625 81.660156 47.5625 81.660156 49.972656 Z M 81.660156 49.972656 " fill-opacity="1" fill-rule="nonzero"/><g fill="#ffffff" fill-opacity="1"><g transform="translate(27.742178, 108.754911)"><g><path d="M 1.1875 -2.203125 L 8.40625 -10.609375 L 1.40625 -10.609375 L 1.40625 -13.140625 L 12.125 -13.140625 L 12.125 -10.953125 L 4.90625 -2.53125 L 12.125 -2.53125 L 12.125 0 L 1.1875 0 Z M 1.1875 -2.203125 "/></g></g></g><g fill="#ffffff" fill-opacity="1"><g transform="translate(41.042042, 108.754911)"><g><path d="M 6.078125 -13.234375 L 8.75 -13.234375 L 14.390625 0 L 11.359375 0 L 10.15625 -2.953125 L 4.59375 -2.953125 L 3.40625 0 L 0.453125 0 Z M 9.125 -5.5 L 7.375 -9.765625 L 5.640625 -5.5 Z M 9.125 -5.5 "/></g></g></g><g fill="#ffffff" fill-opacity="1"><g transform="translate(55.882282, 108.754911)"><g><path d="M 1.578125 -13.140625 L 6.953125 -13.140625 C 7.734375 -13.140625 8.429688 -13.03125 9.046875 -12.8125 C 9.671875 -12.59375 10.195312 -12.28125 10.625 -11.875 C 11.0625 -11.476562 11.394531 -11 11.625 -10.4375 C 11.863281 -9.882812 11.984375 -9.273438 11.984375 -8.609375 L 11.984375 -8.5625 C 11.984375 -7.800781 11.84375 -7.128906 11.5625 -6.546875 C 11.289062 -5.972656 10.910156 -5.492188 10.421875 -5.109375 C 9.941406 -4.722656 9.378906 -4.429688 8.734375 -4.234375 C 8.097656 -4.035156 7.410156 -3.9375 6.671875 -3.9375 L 4.46875 -3.9375 L 4.46875 0 L 1.578125 0 Z M 6.765625 -6.515625 C 7.484375 -6.515625 8.039062 -6.703125 8.4375 -7.078125 C 8.84375 -7.460938 9.046875 -7.941406 9.046875 -8.515625 L 9.046875 -8.546875 C 9.046875 -9.191406 8.835938 -9.679688 8.421875 -10.015625 C 8.003906 -10.359375 7.429688 -10.53125 6.703125 -10.53125 L 4.46875 -10.53125 L 4.46875 -6.515625 Z M 6.765625 -6.515625 "/></g></g></g><g fill="#ffffff" fill-opacity="1"><g transform="translate(68.430739, 108.754911)"><g><path d="M 1.578125 -13.140625 L 6.703125 -13.140625 C 7.734375 -13.140625 8.675781 -12.972656 9.53125 -12.640625 C 10.382812 -12.316406 11.117188 -11.859375 11.734375 -11.265625 C 12.359375 -10.679688 12.835938 -9.988281 13.171875 -9.1875 C 13.515625 -8.394531 13.6875 -7.535156 13.6875 -6.609375 L 13.6875 -6.578125 C 13.6875 -5.648438 13.515625 -4.785156 13.171875 -3.984375 C 12.835938 -3.179688 12.359375 -2.484375 11.734375 -1.890625 C 11.117188 -1.304688 10.382812 -0.84375 9.53125 -0.5 C 8.675781 -0.164062 7.734375 0 6.703125 0 L 1.578125 0 Z M 4.46875 -10.53125 L 4.46875 -2.609375 L 6.703125 -2.609375 C 7.296875 -2.609375 7.832031 -2.703125 8.3125 -2.890625 C 8.800781 -3.078125 9.21875 -3.34375 9.5625 -3.6875 C 9.90625 -4.039062 10.175781 -4.457031 10.375 -4.9375 C 10.570312 -5.414062 10.671875 -5.945312 10.671875 -6.53125 L 10.671875 -6.578125 C 10.671875 -7.148438 10.570312 -7.679688 10.375 -8.171875 C 10.175781 -8.660156 9.90625 -9.078125 9.5625 -9.421875 C 9.21875 -9.773438 8.800781 -10.046875 8.3125 -10.234375 C 7.832031 -10.429688 7.296875 -10.53125 6.703125 -10.53125 Z M 4.46875 -10.53125 "/></g></g></g><g fill="#ffffff" fill-opacity="1"><g transform="translate(83.120706, 108.754911)"><g><path d="M 1.578125 -13.140625 L 11.5 -13.140625 L 11.5 -10.578125 L 4.453125 -10.578125 L 4.453125 -7.90625 L 10.65625 -7.90625 L 10.65625 -5.328125 L 4.453125 -5.328125 L 4.453125 -2.578125 L 11.59375 -2.578125 L 11.59375 0 L 1.578125 0 Z M 1.578125 -13.140625 "/></g></g></g><g fill="#ffffff" fill-opacity="1"><g transform="translate(95.706734, 108.754911)"><g><path d="M 6.25 0.1875 C 5.25 0.1875 4.265625 0.015625 3.296875 -0.328125 C 2.335938 -0.671875 1.460938 -1.203125 0.671875 -1.921875 L 2.390625 -3.96875 C 2.984375 -3.476562 3.597656 -3.085938 4.234375 -2.796875 C 4.867188 -2.503906 5.5625 -2.359375 6.3125 -2.359375 C 6.914062 -2.359375 7.378906 -2.46875 7.703125 -2.6875 C 8.035156 -2.914062 8.203125 -3.222656 8.203125 -3.609375 L 8.203125 -3.640625 C 8.203125 -3.828125 8.164062 -3.992188 8.09375 -4.140625 C 8.03125 -4.285156 7.898438 -4.421875 7.703125 -4.546875 C 7.515625 -4.671875 7.25 -4.796875 6.90625 -4.921875 C 6.5625 -5.046875 6.113281 -5.175781 5.5625 -5.3125 C 4.894531 -5.476562 4.289062 -5.660156 3.75 -5.859375 C 3.21875 -6.054688 2.765625 -6.300781 2.390625 -6.59375 C 2.015625 -6.894531 1.722656 -7.265625 1.515625 -7.703125 C 1.304688 -8.140625 1.203125 -8.679688 1.203125 -9.328125 L 1.203125 -9.375 C 1.203125 -9.96875 1.3125 -10.503906 1.53125 -10.984375 C 1.757812 -11.472656 2.078125 -11.890625 2.484375 -12.234375 C 2.890625 -12.585938 3.375 -12.859375 3.9375 -13.046875 C 4.507812 -13.234375 5.128906 -13.328125 5.796875 -13.328125 C 6.765625 -13.328125 7.648438 -13.179688 8.453125 -12.890625 C 9.265625 -12.609375 10.007812 -12.195312 10.6875 -11.65625 L 9.1875 -9.484375 C 8.59375 -9.878906 8.015625 -10.191406 7.453125 -10.421875 C 6.890625 -10.660156 6.328125 -10.78125 5.765625 -10.78125 C 5.203125 -10.78125 4.78125 -10.671875 4.5 -10.453125 C 4.21875 -10.234375 4.078125 -9.960938 4.078125 -9.640625 L 4.078125 -9.59375 C 4.078125 -9.382812 4.113281 -9.203125 4.1875 -9.046875 C 4.269531 -8.890625 4.414062 -8.75 4.625 -8.625 C 4.84375 -8.5 5.132812 -8.378906 5.5 -8.265625 C 5.875 -8.148438 6.34375 -8.019531 6.90625 -7.875 C 7.570312 -7.695312 8.164062 -7.5 8.6875 -7.28125 C 9.207031 -7.0625 9.644531 -6.796875 10 -6.484375 C 10.351562 -6.179688 10.617188 -5.820312 10.796875 -5.40625 C 10.984375 -5 11.078125 -4.503906 11.078125 -3.921875 L 11.078125 -3.890625 C 11.078125 -3.234375 10.957031 -2.648438 10.71875 -2.140625 C 10.488281 -1.640625 10.160156 -1.21875 9.734375 -0.875 C 9.304688 -0.53125 8.796875 -0.265625 8.203125 -0.078125 C 7.617188 0.0976562 6.96875 0.1875 6.25 0.1875 Z M 6.25 0.1875 "/></g></g></g><g fill="#ffffff" fill-opacity="1"><g transform="translate(107.72921, 108.754911)"><g><path d="M 1.578125 -13.140625 L 4.46875 -13.140625 L 4.46875 -7.40625 L 9.765625 -13.140625 L 13.3125 -13.140625 L 7.9375 -7.5625 L 13.546875 0 L 10.0625 0 L 5.984375 -5.59375 L 4.46875 -4.015625 L 4.46875 0 L 1.578125 0 Z M 1.578125 -13.140625 "/></g></g></g></svg>