<svg xmlns="http://www.w3.org/2000/svg" xmlns:xlink="http://www.w3.org/1999/xlink" width="200" zoomAndPan="magnify" viewBox="0 0 150 74.999997" height="100" preserveAspectRatio="xMidYMid meet" version="1.0"><defs><g/><clipPath id="0e495ff910"><path d="M 2.851562 14.324219 L 49.351562 14.324219 L 49.351562 60.824219 L 2.851562 60.824219 Z M 2.851562 14.324219 " clip-rule="nonzero"/></clipPath></defs><path fill="#ebeef7" d="M 46.382812 59.667969 L 37.429688 57.261719 C 33.480469 56.203125 29.40625 55.878906 25.328125 56.007812 C 24.785156 56.042969 24.238281 56.042969 23.691406 56.007812 C 13.679688 55.59375 5.433594 47.535156 4.824219 37.492188 C 4.054688 25.492188 14 15.605469 26.035156 16.441406 C 36.082031 17.148438 44.070312 25.523438 44.390625 35.566406 C 44.457031 37.75 44.167969 39.867188 43.589844 41.855469 L 47.953125 58.09375 C 48.179688 59.058594 47.34375 59.925781 46.382812 59.667969 Z M 46.382812 59.667969 " fill-opacity="1" fill-rule="nonzero"/><path fill="#c3d6e4" d="M 5.785156 29.984375 C 5.785156 29.984375 21.992188 15.414062 32.871094 23.4375 C 45.644531 32.839844 41.632812 41.632812 41.632812 41.632812 L 43.238281 45.964844 C 43.78125 47.410156 45.933594 46.800781 45.644531 45.289062 L 45.707031 34.347656 L 42.691406 24.945312 L 35.695312 18.078125 L 27.671875 15.382812 L 17.339844 16.34375 L 7.070312 24.078125 L 4.214844 29.757812 Z M 5.785156 29.984375 " fill-opacity="1" fill-rule="nonzero"/><g clip-path="url(#0e495ff910)"><path fill="#004463" d="M 46.476562 60.824219 C 46.222656 60.824219 45.964844 60.789062 45.738281 60.726562 L 38.488281 58.769531 C 33.832031 57.515625 29.375 56.972656 25.167969 57.132812 C 24.589844 57.164062 23.980469 57.164062 23.40625 57.132812 C 12.589844 56.683594 3.605469 47.890625 2.929688 37.109375 C 2.546875 30.914062 4.824219 24.878906 9.21875 20.515625 C 13.617188 16.183594 19.683594 13.9375 25.875 14.386719 C 36.65625 15.15625 45.386719 24.238281 45.707031 35.054688 C 45.707031 35.34375 45.707031 35.664062 45.707031 35.953125 C 45.644531 41.277344 46.445312 47.023438 48.050781 52.992188 L 49.171875 57.230469 C 49.429688 58.222656 49.171875 59.25 48.433594 59.988281 C 47.921875 60.535156 47.214844 60.824219 46.476562 60.824219 Z M 46.542969 57.644531 Z M 26.550781 53.921875 C 30.59375 53.921875 34.894531 54.53125 39.289062 55.6875 L 45.996094 57.484375 L 45 53.828125 C 43.332031 47.570312 42.5 41.535156 42.5625 35.921875 C 42.5625 35.664062 42.5625 35.40625 42.5625 35.148438 C 42.273438 25.941406 34.859375 18.238281 25.683594 17.5625 C 20.417969 17.179688 15.253906 19.105469 11.53125 22.792969 C 7.808594 26.484375 5.820312 31.652344 6.140625 36.914062 C 6.71875 46.0625 14.355469 53.539062 23.5 53.921875 C 24.015625 53.957031 24.496094 53.957031 25.007812 53.921875 C 25.523438 53.921875 26.035156 53.921875 26.550781 53.921875 Z M 26.550781 53.921875 " fill-opacity="1" fill-rule="nonzero"/></g><path fill="#f5b445" d="M 19.328125 36.371094 C 19.328125 37.878906 18.109375 39.128906 16.570312 39.128906 C 15.0625 39.128906 13.808594 37.910156 13.808594 36.371094 C 13.808594 34.859375 15.027344 33.609375 16.570312 33.609375 C 18.109375 33.609375 19.328125 34.828125 19.328125 36.371094 Z M 19.328125 36.371094 " fill-opacity="1" fill-rule="nonzero"/><path fill="#ef4c4e" d="M 26.902344 36.371094 C 26.902344 37.878906 25.683594 39.128906 24.140625 39.128906 C 22.632812 39.128906 21.382812 37.910156 21.382812 36.371094 C 21.382812 34.859375 22.601562 33.609375 24.140625 33.609375 C 25.683594 33.609375 26.902344 34.828125 26.902344 36.371094 Z M 26.902344 36.371094 " fill-opacity="1" fill-rule="nonzero"/><path fill="#4c9ad4" d="M 34.507812 36.371094 C 34.507812 37.878906 33.289062 39.128906 31.746094 39.128906 C 30.238281 39.128906 28.988281 37.910156 28.988281 36.371094 C 28.988281 34.859375 30.207031 33.609375 31.746094 33.609375 C 33.257812 33.609375 34.507812 34.828125 34.507812 36.371094 Z M 34.507812 36.371094 " fill-opacity="1" fill-rule="nonzero"/><g fill="#000000" fill-opacity="1"><g transform="translate(49.151716, 45.595894)"><g><path d="M 1.1875 -2.21875 L 8.484375 -10.703125 L 1.421875 -10.703125 L 1.421875 -13.25 L 12.234375 -13.25 L 12.234375 -11.046875 L 4.9375 -2.5625 L 12.234375 -2.5625 L 12.234375 0 L 1.1875 0 Z M 1.1875 -2.21875 "/></g></g></g><g fill="#000000" fill-opacity="1"><g transform="translate(62.562387, 45.595894)"><g><path d="M 6.140625 -13.34375 L 8.828125 -13.34375 L 14.5 0 L 11.453125 0 L 10.25 -2.96875 L 4.640625 -2.96875 L 3.421875 0 L 0.453125 0 Z M 9.203125 -5.546875 L 7.4375 -9.84375 L 5.6875 -5.546875 Z M 9.203125 -5.546875 "/></g></g></g><g fill="#000000" fill-opacity="1"><g transform="translate(77.52627, 45.595894)"><g><path d="M 1.59375 -13.25 L 7 -13.25 C 7.800781 -13.25 8.515625 -13.140625 9.140625 -12.921875 C 9.765625 -12.703125 10.289062 -12.390625 10.71875 -11.984375 C 11.15625 -11.578125 11.488281 -11.09375 11.71875 -10.53125 C 11.957031 -9.976562 12.078125 -9.359375 12.078125 -8.671875 L 12.078125 -8.640625 C 12.078125 -7.867188 11.9375 -7.191406 11.65625 -6.609375 C 11.382812 -6.023438 11.003906 -5.535156 10.515625 -5.140625 C 10.035156 -4.753906 9.46875 -4.460938 8.8125 -4.265625 C 8.164062 -4.078125 7.46875 -3.984375 6.71875 -3.984375 L 4.5 -3.984375 L 4.5 0 L 1.59375 0 Z M 6.8125 -6.578125 C 7.550781 -6.578125 8.117188 -6.765625 8.515625 -7.140625 C 8.921875 -7.523438 9.125 -8.003906 9.125 -8.578125 L 9.125 -8.609375 C 9.125 -9.265625 8.910156 -9.765625 8.484375 -10.109375 C 8.066406 -10.453125 7.492188 -10.625 6.765625 -10.625 L 4.5 -10.625 L 4.5 -6.578125 Z M 6.8125 -6.578125 "/></g></g></g><g fill="#000000" fill-opacity="1"><g transform="translate(90.179279, 45.595894)"><g><path d="M 1.59375 -13.25 L 6.765625 -13.25 C 7.796875 -13.25 8.742188 -13.082031 9.609375 -12.75 C 10.472656 -12.414062 11.21875 -11.953125 11.84375 -11.359375 C 12.46875 -10.765625 12.953125 -10.066406 13.296875 -9.265625 C 13.640625 -8.460938 13.8125 -7.597656 13.8125 -6.671875 L 13.8125 -6.625 C 13.8125 -5.695312 13.640625 -4.828125 13.296875 -4.015625 C 12.953125 -3.203125 12.46875 -2.5 11.84375 -1.90625 C 11.21875 -1.3125 10.472656 -0.84375 9.609375 -0.5 C 8.742188 -0.164062 7.796875 0 6.765625 0 L 1.59375 0 Z M 4.5 -10.625 L 4.5 -2.625 L 6.765625 -2.625 C 7.359375 -2.625 7.898438 -2.71875 8.390625 -2.90625 C 8.878906 -3.101562 9.296875 -3.378906 9.640625 -3.734375 C 9.992188 -4.085938 10.265625 -4.503906 10.453125 -4.984375 C 10.648438 -5.460938 10.75 -6 10.75 -6.59375 L 10.75 -6.625 C 10.75 -7.207031 10.648438 -7.742188 10.453125 -8.234375 C 10.265625 -8.722656 9.992188 -9.144531 9.640625 -9.5 C 9.296875 -9.851562 8.878906 -10.128906 8.390625 -10.328125 C 7.898438 -10.523438 7.359375 -10.625 6.765625 -10.625 Z M 4.5 -10.625 "/></g></g></g><g fill="#000000" fill-opacity="1"><g transform="translate(104.991628, 45.595894)"><g><path d="M 1.59375 -13.25 L 11.59375 -13.25 L 11.59375 -10.65625 L 4.484375 -10.65625 L 4.484375 -7.96875 L 10.734375 -7.96875 L 10.734375 -5.375 L 4.484375 -5.375 L 4.484375 -2.59375 L 11.6875 -2.59375 L 11.6875 0 L 1.59375 0 Z M 1.59375 -13.25 "/></g></g></g><g fill="#000000" fill-opacity="1"><g transform="translate(117.682518, 45.595894)"><g><path d="M 6.3125 0.1875 C 5.300781 0.1875 4.304688 0.015625 3.328125 -0.328125 C 2.359375 -0.679688 1.476562 -1.21875 0.6875 -1.9375 L 2.40625 -4 C 3.007812 -3.5 3.628906 -3.101562 4.265625 -2.8125 C 4.910156 -2.53125 5.609375 -2.390625 6.359375 -2.390625 C 6.960938 -2.390625 7.429688 -2.5 7.765625 -2.71875 C 8.109375 -2.9375 8.28125 -3.242188 8.28125 -3.640625 L 8.28125 -3.671875 C 8.28125 -3.859375 8.242188 -4.023438 8.171875 -4.171875 C 8.097656 -4.316406 7.960938 -4.453125 7.765625 -4.578125 C 7.578125 -4.703125 7.304688 -4.828125 6.953125 -4.953125 C 6.609375 -5.085938 6.160156 -5.222656 5.609375 -5.359375 C 4.941406 -5.523438 4.332031 -5.707031 3.78125 -5.90625 C 3.238281 -6.113281 2.78125 -6.363281 2.40625 -6.65625 C 2.03125 -6.957031 1.738281 -7.328125 1.53125 -7.765625 C 1.320312 -8.203125 1.21875 -8.75 1.21875 -9.40625 L 1.21875 -9.453125 C 1.21875 -10.054688 1.328125 -10.597656 1.546875 -11.078125 C 1.773438 -11.566406 2.09375 -11.988281 2.5 -12.34375 C 2.914062 -12.695312 3.40625 -12.96875 3.96875 -13.15625 C 4.539062 -13.351562 5.171875 -13.453125 5.859375 -13.453125 C 6.828125 -13.453125 7.71875 -13.304688 8.53125 -13.015625 C 9.34375 -12.722656 10.09375 -12.304688 10.78125 -11.765625 L 9.265625 -9.5625 C 8.671875 -9.96875 8.085938 -10.285156 7.515625 -10.515625 C 6.953125 -10.753906 6.382812 -10.875 5.8125 -10.875 C 5.25 -10.875 4.820312 -10.757812 4.53125 -10.53125 C 4.25 -10.3125 4.109375 -10.039062 4.109375 -9.71875 L 4.109375 -9.671875 C 4.109375 -9.460938 4.148438 -9.273438 4.234375 -9.109375 C 4.316406 -8.953125 4.460938 -8.8125 4.671875 -8.6875 C 4.890625 -8.5625 5.179688 -8.441406 5.546875 -8.328125 C 5.921875 -8.210938 6.394531 -8.082031 6.96875 -7.9375 C 7.632812 -7.757812 8.226562 -7.554688 8.75 -7.328125 C 9.28125 -7.109375 9.722656 -6.84375 10.078125 -6.53125 C 10.441406 -6.226562 10.710938 -5.867188 10.890625 -5.453125 C 11.078125 -5.035156 11.171875 -4.535156 11.171875 -3.953125 L 11.171875 -3.921875 C 11.171875 -3.265625 11.050781 -2.679688 10.8125 -2.171875 C 10.570312 -1.660156 10.238281 -1.226562 9.8125 -0.875 C 9.382812 -0.53125 8.875 -0.265625 8.28125 -0.078125 C 7.6875 0.0976562 7.03125 0.1875 6.3125 0.1875 Z M 6.3125 0.1875 "/></g></g></g><g fill="#000000" fill-opacity="1"><g transform="translate(129.805158, 45.595894)"><g><path d="M 1.59375 -13.25 L 4.5 -13.25 L 4.5 -7.46875 L 9.84375 -13.25 L 13.421875 -13.25 L 8.015625 -7.625 L 13.65625 0 L 10.15625 0 L 6.046875 -5.640625 L 4.5 -4.046875 L 4.5 0 L 1.59375 0 Z M 1.59375 -13.25 "/></g></g></g></svg>